<?xml version='1.0' encoding='utf-8'?>
<svg xmlns="http://www.w3.org/2000/svg" xmlns:xlink="http://www.w3.org/1999/xlink" version="1.1" x="0px" y="0px" width="847px" height="1015px" viewBox="0 0 847 1015" enable-background="new 0 0 847 1015" xml:space="preserve">
<g transform="matrix(1 0 0 .98784 2.1537 16.783)">
<rect transform="translate(.33848 .23842)" x="417.36" y="163.22" width="12.284" height="336.15" fill="#1a1a1a" fill-rule="evenodd" />
<g transform="translate(-970.77 -27.793)">
<path d="m1394.2 453.38v0.46875c-38.568 20.632-34.199 71.707-15.875 132.69-3.8335 33.419-11.216 74.402-14.094 86.656-26.348 72.46-107.96 54.924-112.72 27.969-16.5 48.956 35.78 47.585 105.28 30.188-12.601 34.867-37.205 50.865-84.906 53.312-42.057-0.5183-53.401 43.644-19.188 67.875-13.411-55.479 19.357-49.37 44.375-47.5 25.164-2.0297 61.574-36.738 76.406-50.406 3.0367 57.449-15.413 98.997-61.938 114.41 22.504 9.1556 45.116 11.436 68.594-44.781 7.4414 32.37 16.839 65.93-21.844 70.656 13.483 19.534 23.182 15.981 31.5 3.7812-2.516 24.968-0.4834 67.256-15.344 86.844 11.191-2.7314 18.008 18.455 20.188 24.406 2.1792-5.9513 8.9655-27.138 20.156-24.406-14.86-19.588-12.828-61.875-15.344-86.844 8.3177 12.2 18.017 15.753 31.5-3.7812-38.683-4.7262-29.285-38.286-21.844-70.656 23.478 56.217 46.089 53.937 68.594 44.781-46.524-15.409-64.974-56.957-61.938-114.41 14.833 13.668 51.242 48.377 76.406 50.406 25.018-1.8704 57.786-7.9793 44.375 47.5 34.214-24.231 22.87-68.393-19.187-67.875-47.702-2.4474-72.306-18.446-84.906-53.312 69.501 17.398 121.78 18.769 105.28-30.188-4.7588 26.956-86.34 44.491-112.69-27.969-2.8777-12.254-10.26-53.238-14.094-86.656 18.322-60.975 22.681-112.05-15.875-132.69v-0.46875c-0.145 0.0746-0.2937 0.14335-0.4375 0.21875-0.1457-0.0764-0.2906-0.14319-0.4375-0.21875z" fill="#1a1a1a" stroke="#000" stroke-width="6.1122" />
<path d="m1370.6 525.97c1.7908 17.91 6.959 37.856 13.312 59-3.8334 33.419-11.185 79.402-14.062 91.656-26.348 72.46-99.864 56.454-115.22 40.094 8.2234 29.279 56.992 22.371 113.38 4.4688-12.601 34.867-23.603 59.931-93 68.938-42.057-0.51831-44.308 29.533-27.25 52.25-10.888-50.938 25.919-44.839 50.938-42.969 25.164-2.0297 64.074-42.769 78.906-56.438 3.0367 57.449-6.3196 109.59-52.844 125 22 1.5872 32.99-2.1892 56.469-58.406 7.4413 32.37 22.902 84.086-15.781 88.812 7.933 6.9206 20.87-0.76902 29.188-12.969 8.3178 12.2 21.254 19.889 29.188 12.969-38.683-4.7262-23.254-56.443-15.812-88.812 23.478 56.217 34.469 59.993 56.469 58.406-46.524-15.409-55.881-67.551-52.844-125 14.833 13.668 53.773 54.408 78.938 56.438 25.018-1.8704 61.825-7.9695 50.938 42.969 17.058-22.717 14.807-52.768-27.25-52.25-69.397-9.0066-80.399-34.071-93-68.938 56.383 17.902 105.15 24.81 113.38-4.4688-15.354 16.36-88.903 32.366-115.25-40.094-2.8779-12.254-10.229-58.238-14.062-91.656 6.3535-21.144 11.553-41.09 13.344-59-10.21 13.297-24.031 12.832-24.031 13.125 0-0.29289-13.821 0.17183-24.031-13.125zm24.031 359.44c-2.516 24.968 0.673 83.522-10.188 91 9.2271 0.68011 10.128 6.167 10.188 10.219v-0.25c0.094-4.0252 1.1135-9.3022 10.156-9.9688-10.86-7.4784-7.6402-66.032-10.156-91zm0 101.22c-0.011 0.71761 0 1.4082 0 2v-1.625c-5e-4 -0.11835 0-0.25389 0-0.375z" fill="#2d2d2d" />
<path d="m1375.6 540.03c3.6734 16.483 13.784 32.186 15.859 48.906-0.476 91.226 2.3166 188.01 3.1571 280.53 0.8405-92.518 3.6331-189.31 3.1571-280.53 2.0748-16.72 12.186-32.424 15.859-48.906l-19.016 37.031-19.016-37.031zm19.016 329.44c-0.2802 30.839-0.3478 61.196 0 90.719 0.3479-29.522 0.2802-59.879 0-90.719z" fill="#4d4d4c" fill-rule="evenodd" stroke="#4d4d4c" stroke-width="2" />
</g>
<g id="b" transform="translate(-970.77 -27.793)">
<path d="m1234.6 379.14c2.611-2.3783-3.3138-1.3448-4.6549 3.6483-4.6932 50.033-21.586 99.219-54.884 137.46-8.605 6.4944-4.9113 11.868 1.0197 5.9667 40.678-40.517 53.595-100.29 59.369-140.59-1.2307-14.059 0.2534-4.07-0.85-6.4827zm-95.178-97.047c3.4171-0.89276-2.3095-2.7306-5.8171 1.0678-27.403 42.123-65.215 77.829-112.47 96.217-10.637 1.7526-9.8635 8.2275-1.8694 5.7573 54.846-16.978 94.058-63.907 117.89-96.907 5.4424-13.021 2.1154-3.4863 2.2594-6.1354zm58.143 79.255c-1.8338-1.9788 3.3386-9.5132-4.0116-7.0259 1.8852-0.83293-2.9902 20.998-7.2183 31.414-4.2282 10.416-11.343 25.088-21.005 41.281-9.6618 16.193-21.87 33.906-36.286 50.404-14.416 16.498-31.039 31.781-49.529 43.112-10.22 3.4303-8.4216 9.6983-0.9251 5.982 49.517-26.44 83.961-80.171 101.94-116.62 9.5701-17.286 12.821-31.899 17.032-48.546zm-113.19-103.43c-7.75 8.7505-10.774 13.543-17.266 20.084-6.4916 6.5411-10.118 10.16-15.472 14.825-5.3536 4.6648-10.168 8.4747-14.504 11.596-4.3355 3.1216-8.1922 5.5548-11.63 7.4662-3.4378 1.9114-6.4568 3.3011-9.117 4.3354-2.6603 1.0344-4.9618 1.7136-6.9646 2.204-2.0029 0.49047-3.7071 0.79223-5.1727 1.0718-1.4656 0.27958-2.6927 0.53703-3.7413 0.93885l0.623 0.62591-0.362-0.0892c30.027 1.4533 65.409-33.331 81.973-51.989 3.1317-3.5277 17.498-23.013 19.121-25.034 1.6321-4.6188 0.01-5.189-3.5215-4.5798zm-90.448-70.634 0.18096 0.0352 0.22582 0.095c31.652 1.1614 75.283-42.284 81.36-50.907-0.1904-3.4404-3.6561-0.17813-2.7693-1.341-49.756 48.832-78.716 52-78.997 52.118zm287.99 211.9-4.8207-0.86168c0.4377 21.549-9.4696 64.73-22.448 89.392-9.7563 16.631 1.8054 4.0508 1.7033 0.66519 12.439-14.022 23.516-63.407 25.615-88.63zm-205.36-223.61c-49.839 79.124-70.364 76.387-78.121 80.918l0.7162 0.5167-0.3716-0.0294c35.512-4.0795 70.196-59.945 78.208-74.139-0.2117-3.4558-0.205-4.4244-0.4311-7.2665zm90.889 144.2c-1.5465-2.2106 1.5642-0.81895-1.9844-1.2449 7.9248-2.2714-50.562 99.242-130.02 134.05-10.593 2.0032-9.6666 8.458-1.733 5.7998 84.981-31.36 140.78-138.48 136.05-136.62z" fill-rule="evenodd" />
<path d="m1324 263.48-29.685 3.6293c-9.009 18.178-49.692 53.651-44.972 7.1794 0.6351-19.209-13.232-27.211-26.428-20.844-12.794 5.9862-25.42-9.4603-11.539-26.055 11.05-15.219-17.374-56.317-48.389-20.1-25.547 23.706-76.607-39.54-39.456-55.088 22.025-8.7515 7.378-25.194-5.6481-27.52 17.493-5.808 7.4429-25.069 27.237-45.434-60.94-47.063-95.698 76.967-155.09 81.414 3.5192 16.031 26.907 12.747 86.912-31.671-5.56 32.608-45.892 65.436-84.065 82.232 22.792 28.36 68.128-21.734 79.145-36.761 1.8513 6.4095 7.4822 12.549 4.0387 19.727-18.682 59.663-47.506 71.417-73.527 79.392 30.375 36.148 82.718-21.749 89.739-46.98 4.1438 9.3272 8.7676 14.408 17.482 22.378-19.823 54.137-63.753 75.132-96.904 94.714 47.844 23.078 102.36-37.014 115.52-71.265 3.2008 7.0182 6.3886 14.044 12.871 19.187-25.671 60.597-98.464 114.29-121.66 123.23 23.057 45.819 136.16-73.647 142.69-102.63 2.3409 6.6021 6.8856 12.181 11.503 17.726-48.848 123.58-93.139 126.95-136 154.07 68.464 26.372 144.78-81.779 154.22-135.14 2.5788 5.3991 5.7675 10.676 10.735 15.598-13.562 82.292-60.649 148.03-114.93 186.38 69.576 21.285 127.45-118.08 137.35-173.08 6.9927 6.1806 9.9545 9.2852 17.386 12.162 2.1804 42.077-22.691 96.56-38.786 125.15 47.37 1.0564 64.831-94.29 64.334-117.72 6.46 3.3808 10.616 4.4309 18.72 5.1354 6.0098 20.191-12.991 86.432-18.637 88.332 34.375-12.737 41.854-41.05 42.899-84.103l30.978-9.7863c26.245-50.473 6.2114-92.504-18.042-133.45z" fill="#1a1a1a" stroke="#000" stroke-width="6.1122" />
<g transform="matrix(.95854 -.12233 .12233 .95854 927.96 519.2)">
<use transform="matrix(-.93633 -.35112 -.35112 .93633 494.26 106.44)" width="744.09448" height="1052.3622" xlink:href="#a" />
<path d="m345.89 82.184c-32.1 37.479-57.599 79.377-97.017 102.22-10.254 7.6677-50.247-4.5743-56.442-21.718 5.1275-12.728 2.7003-19.226-18.94-14.647-14.558 3.5188-32.919-1.1115-39.143-9.0913-6.5822-4.2892-11.467 2.3411-13.132 14.142 10.54 22.151 29.824 15.386 38.638 3.9144 7.2791 3.3716 13.202 3.5274 19.193 11.49 19.175 24.521 39.667 34.56 61.872 25.759-3.752 4.7038-7.4843 9.4135-14.521 13.132-14.651 1.3414-30.335 1.5026-39.017-3.7881-14.659-25.057-25.706-4.9169-40.154-4.2931-23.519 2.4832-24.371-27.07-31.315-3.7881-3.9906 50.223 29.259 9.5005 41.669 9.849 2.6031 0.1539 7.3123-0.5294 6.8185 1.7678-4.1968 23.159 13.265-6.7279 19.445 11.364 6.1206 3.9136 21.158 2.2927 36.871 0.2525-27.229 14.694-51.26 19.445-68.888 18.305-4.3529-0.8666-6.9331-0.3165-10.076 2.4238-17.671 15.525 9.5211 36.704 19.617 9.8285 14.389-8.3442 33.271-9.0494 50.76-12.122 6.4134-0.5763 16.1-4.4169 20.486-9.7641 17.446-21.271 29.239-4.5609 52.245-14.227 21.593-11.166 35.739-7.7035 47.982-0.5051 11.611 8.233-4.621-24.335-14.142-25.254-18.672 0.1439-17.277 21.409-62.124 13.132 16.383-12.962 42.709-24.425 47.225-42.679 24.346-15.689 46.507-35.201 68.185-55.558z" fill="#a00" stroke="#780000" stroke-width="5.2215" />
<path d="m434.06-66.593c-2.4888 30.508-37.984 84.599-52.628 105.38-19.354 12.968-29.698 30.961-36.964 44.821l25.179 20.536c17.261-12.604 27.252-27.48 37.059-42.414 19.65-12.633 34.948-32.931 48.929-50.792z" fill="#1a1a1a" stroke="#000" stroke-width="6.3253" />
<g id="a" transform="translate(.53571 -882.14)">
<path d="m91.06 1027.9c10.111-1.4628 23.876-2.6314 34.876 6.4415 3.5418-1.6235 5.6663-4.499 6.3733-8.6268-11.527-10.658-26.415-18.489-41.25 2.1853z" fill="#a00" stroke="#780000" stroke-width="3.1329" />
<path d="m101.57 1022.9c13.611-1.9697 19.576 2.3211 24.622 6.3124 1.7615-0.8075 1.6521-1.1497 2.0038-3.2027-6.2645-4.5144-20.185-12.005-26.626-3.1097z" fill="#c00" />
</g>
<use transform="matrix(.94589 -.32448 .32448 .94589 -49.985 106.98)" width="744.09448" height="1052.3622" xlink:href="#a" />
<use transform="matrix(.65666 -.75419 .75419 .65666 -50.666 252.09)" width="744.09448" height="1052.3622" stroke-width="5.2215" xlink:href="#a" />
</g>
<path d="m1394.6 199.46c-0.3445-1.3464-0.7001-2.6892-1.0701-4.0286m-51.741 38.783c-30.236 19.447-46.768 39.718-14.514 90.407 8.7766 13.485 8.832 47.553-8.3567 79.026 9.1452 27.754 37.797 105.09 69.929 124.33 1.9065 1.1415 3.223 2.7883 5.7528 2.7883" fill="#1a1a1a" stroke="#000" stroke-width="6.1122" />
<path d="m1394.6 221.53c0-2.1217-6.913 1.4941-7.3602-1.2126-33.766 12.792-40.359 24.3-57.601 36.365-13.844 12.132-16.43 26.66 6.0236 61.946 8.7765 13.485 13.485 54.516-3.7038 85.989 2.422 7.3502 5.6868 16.257 9.5826 25.753 3.8958 9.4966 8.4226 19.584 13.369 29.295s10.311 19.048 15.884 27.043c5.5727 7.9951 23.806 23.134 23.806 24.653" fill="#2d2d2d" />
<path d="m1297 281.64c-9.009 18.178-58.774 45.578-54.054-0.89347 0.6352-19.209-6.673-26.201-19.868-19.835-25.408 15.573-34.502-18.542-20.621-35.137 11.05-15.219-10.31-43.199-41.325-6.9812-34.628 20.679-83.166-53.163-46.015-68.711 22.025-8.7515-2.2085-21.662-15.235-23.988 31.621-15.395 13.498-25.574 31.273-43.92-45.299-25.367-61.893 52.748-124.81 79.9 14.619-1.1238 33.971-8.444 81.362-49.835-5.56 32.608-22.177 70.481-80.029 99.891 11.692 7.169 56.524-35.357 67.54-50.384 1.8513 6.4095 14.041 22.135 10.598 29.314-18.682 59.663-42.219 76.982-68.24 84.958 29.366 12.939 65.902-44.8 72.923-70.032 7.1709 16.39 18.279 32.903 31.03 40.873-19.823 54.137-56.689 74.627-89.841 94.21 47.844-0.12989 82.18-51.14 95.333-85.391 3.2008 7.0182 19.506 30.188 25.989 35.331-25.671 60.597-98.464 117.32-121.66 126.25 32.138 8.4844 123.04-87.774 129.58-120.79 2.341 6.6021 17.985 22.271 22.603 27.816-48.848 123.58-84.058 127.96-126.92 155.08 61.401 5.1827 124.6-94.896 134.03-148.26 2.5788 5.3992 14.849 21.776 19.817 26.697-13.562 82.292-50.559 150.05-104.84 188.4 69.576-22.104 104.24-127.16 114.14-182.16 6.9927 6.1806 23.072 14.33 30.503 17.207 2.1804 42.077-17.646 93.533-33.74 122.12 33.244-13.07 45.659-96.31 45.162-119.74 6.46 3.3808 21.716 8.972 29.821 9.6766 6.0098 20.191-3.4043 77.35-9.0507 79.25 16.716-12.737 20.663-34.491 21.707-77.543l7.7681-1.2089c32.3-64.096-13.971-79.386-9.4642-111.25-1.3222-1.1768-3.7446-0.77045-5.466-0.91173z" fill="#2d2d2d" />
<g transform="matrix(-4.0209 -1.9537 -1.9972 3.9332 1037.3 265.88)">
<path d="m-79.268 37.659 3.222-0.33656c1.4567 6.2208-0.6792 15.832 5.0945 29.803 2.9935 3.3239 10.999 4.6687 12.954 2.3639 0.579-0.38006 1.003-3.5707 2.5494-2.1521 0.77223 0.04193 2.4312 2.1268 3.496 2.8028 0.14984 0.85859 5.0976 2.8643 6.6168 2.2523-0.78643 0.78845-0.85026 1.6418-0.27352 2.5026-1.4001 0.38952-3.8154 0.42742-5.2313-3.4342 0 0-2.0382-0.67504-3.9273-2.8875-1.5635-0.49474-2.2354 1.337-2.8147 1.652-5.1016 3.1043-12.134-0.85329-13.156-2.4996-1.1368-1.0482-1.0652-0.51591-1.7788-1.8663-1.5491-5.2483-4.0973-5.5409-3.0075-11.21zm20.005 39.113c0.83444 0.16845 1.2639 0.27561 1.5317 0.6122 0.51014 0.67112 2.4237 3.786 3.1968 4.2151 2.4438 2.7743 5.7319 0.86558 6.2057 1.0389 0 0-0.20045 2.5203-0.30595 1.7042-0.61735-0.35142-0.90048-0.11223-1.3369-0.67614-0.73939 0.9803-1.1266 1.0048-0.8311 1.3727-1.2503 2.3225-6.1447-5.7596-6.1447-5.7596l-1.0859-0.56582c-0.83132-0.7799-1.1006 0.76666-1.5445 1.5239-0.52715-1.318-0.82801-2.2606-3.2578-1.1705-0.63549-0.31565-4.8102-2.4186-7.392-4.9556-0.42367-0.33069-1.055-1.7919-0.73274-3.3102 0.41686 1.77 0.36584 2.2534 0.88398 2.8228 2.4648 2.3446 6.0996 4.5465 7.8154 4.1975 1.3915-0.29025 1.8255-0.95838 2.9979-1.0494zm-14.095-7.7185c-1.2212 0.39529-2.39 0.16414-4.2876-0.86979-3.9845-3.0587-3.8154-5.202-5.987-7.2106-2.2191-1.4698-3.0774-0.57495-5.8435-0.1302 0 0-0.047-0.01497 0.04294-0.05338 2.6168-1.7172 5.7896-2.2867 5.5612-1.6919 1.9398 0.82699 1.2001 3.2943 4.6482 6.9562 2.4178 1.7126 4.7125 3.0676 5.894 2.9429zm3.0283 7.2956c0.70048 1.9239 2.3681 4.2729 3.5885 5.6846 2.9945 3.8983 5.4587 5.4449 6.266 6.0285 2.5251 1.4055 1.5887 2.4594 1.5887 2.4594-0.57395-0.61418-0.42627-1.2598-1.6425-0.27259-0.47968 0.42912-0.92263 1.0437-0.77595 0.69552 0.37783-0.80269 1.17e-4 -2.4128-1.8719-4.4184-0.75771-0.81177-1.5666-1.6256-2.3655-2.4222s-2.0609-2.1675-2.7787-2.9108c-1.5086-2.5166-2.0459-3.8835-1.9753-4.8807 0 0-0.17954 0.36786-0.03321 0.03666z" fill="#c00" />
</g>
<path d="m1329.8 453.62c-5.5442 15.766-16.631 40.767-28.125 62.482-16.965 14.797-19.602 20.254-24.872 34.429l15.767 10.439c12.102-10.929 14.42-20.608 21.993-36.122 17.29-14.513 18.591-15.168 29.808-34z" fill="#2d2d2d" />
<path d="m1113.8 81.5c-3.1329 0.06505-6.9035 1.1007-11.969 3.8438l-8.5312 5.9375c9.338-6.1378 22.55-10.336 28.594-6.9688-2.3816 6.3983-4.8497 20.332-11.719 26.25-4.4727 3.9674-13.414 2.6027-15.656 8.1562-0.2934 0.77769-0.6484 2.2972-0.5625 4.0938-0.3902 12.411 15.554 10.982 18.469 17.094 0.221 1.2792-0.3798 1.842-1.125 2.4688-3.9838 3.4944-9.8003 8.3638-11.469 12.906-4.0689 10.332-2.6159 22.47 1.2188 31.938 1.6699 4.0254 4.1652 7.451 6.3124 10.844-1.1038-1.92-2.0408-3.9047-3-5.5312-1.4519-2.4622-1.5115-4.109-2.4374-6.4062-0.926-2.2972-1.5907-4.4933-2.0626-6.625-0.4718-2.1317-0.723-4.1906-0.8124-6.1562-0.4399-6.6633 0.5475-13.927 3.4374-19.594 0.7226-1.2968 1.4728-1.9342 2.2188-3.0625 1.5397-1.5777 3.6153-3.8225 5.2188-4.7188 9.3734-5.3132 3.5281-9.6477-2.125-12.156-4.3021-1.751-8.9081-3.3446-11.688-6.75-2.9103-11.356 7.1142-10.479 13.594-15.094 10.236-7.2185 8.41-20.812 14.312-27.562-3.2154-1.4751-6.1908-2.9899-10.219-2.9062zm-6.4376 116.56c0.5672 0.98641 1.1794 1.9523 1.875 2.8438-0.6417-0.92113-1.2596-1.8714-1.875-2.8438zm2 3c13.406 19.14 31.822 27.201 29.313 25.688 0.826 0.36315 1.7821 0.62977 2.7812 0.84375 7.2696 3.8509 14.369 1.5752 20.906-2.4688 0.3523-0.18052 0.6607-0.41643 0.9688-0.62495 9.1092-5.9213 17.088-14.921 22.781-14.938 5.3769 0.96179 9.6914 2.592 10 8.875-0.375 9.5754-14.322 33.959 0.1407 44.75 15.139 13.581 24.139 4.0944 32.109 2.7188 3.9674-1.1375 8.0258 2.403 7.75 8.6875-0.2681 2.3209-0.3947 4.5159-0.4062 6.625 2.4112-14.912-1.088-19.369-15.469-13.344-10.513 4.2131-17.004 1.0462-23.344-4.25-0.3476-0.27737-0.6688-0.59269-0.9687-0.875-9.4937-9.3899-3.6941-29.808 1.0937-38.594l0.2187-0.21875c8.0039-13.665-7.5266-24.313-19.469-12.719l-14.875 11.719c-1.341 0.79624-3.8482 2.1085-6.875 3.1875-18.95 5.212-36.505-14.067-38.906-16.531-2.668-2.7383-5.8095-6.0712-7.8594-8.6719zm126.34 80.156c0 0.3948-0.01 0.79991 0 1.1875 0.036-0.61021 0.066-1.2002 0.125-1.8438zm0 1.1875c-0.5861 9.8998 1.8335 15.549 6.5312 20.406-3.6204-4.6521-5.7797-10.322-6.375-17.219-0.089-1.0352-0.1372-2.0961-0.1562-3.1875zm6.5312 20.406c2.6999 3.4691 6.2295 6.3495 10.531 8.7812 0.5198 0.32549 1.0076 0.57554 1.5 0.84375 17.68 8.9834 38.051-16.541 41.156-19.375 0.7308-0.88961 1.2309-1.6034 1.7808-2.2812-11.686 10.415-23.825 23.831-37.562 21.312-2.9694-0.47816-5.858-0.67747-8.6875-2.0625-3.4015-2.4953-6.3611-4.781-8.7188-7.2188z" fill="#4d4d4c" fill-rule="evenodd" stroke="#4d4d4c" stroke-linejoin="round" stroke-width="3.36" />
<path d="m1291.5 558.74 0.5735 1.3905 15.729-18.507 4.1756-16.812 29.373-37.353-25.848 38.583-4.4421 15.928-17.605 22.092-7.7532-5.3002-9.5583-7.1684z" fill="#4d4d4c" fill-rule="evenodd" stroke="#4d4d4c" stroke-width="2.3521" />
</g>
<use transform="matrix(-1 0 0 1 847.36 .23842)" width="2286.4697" height="1069.9548" xlink:href="#b" />
<path transform="translate(.33848 .23842)" d="m422.43 193.62c-1.9694 0.25428-5.9458 2.3113-6.2812 0.28125 3.4384 102.7 4.3226 199.29-8.0625 263.75 5.5727 7.9951 15.438 23.137 15.438 24.656 0-1.5189 9.8336-16.661 15.406-24.656-12.385-64.465-11.47-161.05-8.0312-263.75-0.4472 2.7068-7.375-1.8405-7.375 0.28125 0-0.53043-0.4373-0.64726-1.0938-0.5625z" fill="#2d2d2d" />
<g transform="translate(.33848 .23842)">
<path d="m492.22 217.88c-20.71-15.53-9.0901-52.627-11.883-78.974-3.4473-30.245-15.073-56.139-37.033-81.793 12.48-0.35782 12.846-1.4043 17.533-9.492-16.944 7.6128-23.543 2.211-34.31-8.5774 13.771-0.27669 12.258-2.0213 18.763-9.5235-22.58 8.5526-26.908 1.8951-45.252-6.37 22.522 0.10123 19.12-0.83771 26.678-9.555-26.912 10.36-45.964-1.4476-68.304-1.356-7.2229 0.36072-14.583 1.7227-19.615 3.7211-14.006 4.3131-26.922 13.589-38.504 28.697l55.47 26.899c49.972-5.2973 59.689 46.596 49.362 87.684-6.2171 21.926-11.006 31.008-27.494 42.319-7.8187 5.3546-16.745 11.253-20.843 15.073" fill="#1a1a1a" stroke="#000" stroke-width="6.1122" />
<path d="m491.65 232.42c-32.329-20.477-24.248-40.745-22.603-59.368 3.1986-36.203 2.5579-82.867-41.585-120.4 3.4029-2.2197-1.4849-0.0098 3.2027-1.8117-7.8933-1.0468-28.027-15.544-21.593-16.551-19.774-8.1764-21.685-8.8681-15.699-13.621 0.9337 0.15237 13.591 0.76508-2.0488 0.42453-25.102 1.9119-49.106-10.508-70.677 14.748 22.685 5.4292 37.672 14.919 44.031 26.73 56.136 2.4097 62.447 53.244 50.631 95.668 3.7386 11.408-36.333 64.116-57.232 68.03" fill="#2d2d2d" />
<path d="m344.97 38.406c-0.0558-2.6529 29.186-5.0855 28.111 2.234-2.9472 11.155-23.159 19.822-28.111-2.234z" fill="#fff" />
<path d="m263.87 79.26c10.734 11.27 27.99 18.22 30.624 3.0898 2.9182 2.6682 1.3743 6.244 3.8835 5.446 10.764-3.4231 14.407-12.57 21.774-20.473 12.908-11.857 25.274-6.0647 26.107 9.5045-10.215-0.92161-17.193 3.121-22.918 7.79-6.5077 6.0065-12.747 11.131-20.49 14.043-16.962 6.3131-33.904 2.2112-38.981-19.4z" fill="#c00" id="tongue-0" />
<path d="m263.48 77.455c10.734 11.27 27.99 18.22 30.624 3.0898 2.9182 2.6682 1.3743 6.244 3.8835 5.446 10.764-3.4231 14.407-12.57 21.774-20.473 15.486-7.8604 21.792-5.8068 25.591 6.0232-9.1835-3.3714-17.322-0.61812-23.047 4.0509-6.5077 6.0065-11.973 13.452-19.716 16.364-16.962 6.3132-30.552 6.466-39.11-14.5z" fill="#db1212" id="tongue-1" />
<path d="m263.55 78.917c10.734 11.27 27.99 18.22 30.624 3.0898 2.9182 2.6682 1.3743 6.244 3.8835 5.446 10.764-3.4231 14.407-12.57 21.774-20.473 12.908-11.857 25.274-6.0647 26.107 9.5045-10.215-0.92161-17.193 3.121-22.918 7.79-6.5077 6.0065-12.747 11.131-20.49 14.043-16.962 6.3131-33.904 2.2112-38.981-19.4z" fill="none" stroke="#780000" stroke-width="3" id="tongue-2" />
<path d="m301.45 42.593c-5.7878 3.3177-21.077 4.4636-29.323 2.5608-13.206-3.0476-28.172 10.092-25.387 30.29 36.861-34.258 19.049 4.668 71.163-13.015 19.219-5.8568 27.472 11.088 25.616 22.074-1.9481 12.421-13.211 21.438-20.18 29.648 17.41 1.6828 31.616-24.766 38.597-44.378 3.278-9.2028-46.741-36.083-60.487-27.18z" fill="#c00" stroke="#780000" stroke-width="3" />
<path d="m304.82 44.906c-5.7878 3.3177-20.754 5.9182-28.999 4.0154-13.206-3.0476-23.324 4.9204-27.004 19.623 28.516-32.739 25.171 3.3597 67.446-15.439 21.481-1.9781 35.229 17.229 33.373 28.216-1.9481 12.421-12.888 24.347-18.725 28.194 14.906-8.2523 18.875-20.448 26.153-39.368 3.0967-8.8704-40.612-30.269-52.244-25.24z" fill="#db1212" />
<path d="m305.89 50.222c-2.5946 0.12975-4.3005-2.128 0.75762-4.1395 1.2955-0.5152-6.5079-0.91935-6.6569 5.419 3e-3 0.0555 0.58283-6.3701 7.0339-5.5615 2.4042 1.5492 1.6444 3.8067-0.97544 4.255z" fill="#780000" stroke="#7a0000" stroke-width="1.25" />
<path d="m362.46 43.225c0 4.1645-3.3763 7.5404-7.5412 7.5404-4.1649 0-5.4302-3.9506-7.5412-7.5404-4.6244-7.8636 3.2912-7.6085 7.5412-7.5404 4.1644 0.06674 7.5412 3.376 7.5412 7.5404z" fill="#fc0" stroke="#000" stroke-width="1" />
<path d="m359.37 43.225c0 2.4586-1.9933 4.4516-4.452 4.4516-2.4588 0-5.3257-5.4871-5.3257-7.9457 0-2.4586 2.7698-1.9281 5.2286-1.9281s4.5491 2.9636 4.5491 5.4222z" />
<path d="m344.97 38.406c-0.0558-2.6529 29.186-5.0855 28.111 2.234-2.9472 11.155-23.159 19.822-28.111-2.234z" fill="none" stroke="#000" stroke-width="3" />
<path d="m334.14 27.013c6.5572 6.2979 17.14 11.575 53.256 3.4254-0.52437 2.0247-3.452 2.7248-6.3788 3.4254 3.5039 0.59572 9.6483 1.1914 15.428 1.7872-30.712 2.7781-65.856 8.0769-62.305-8.638z" fill="#111" stroke="#000" stroke-width="3" />
<path d="m361.24 15.902c18.215 1.3066 16.894 4.7923 37.895 6.3165-21.546-1.4067-24.148-3.923-28.094-4.7479-16.507-3.0262-33.412 1.4661-44.338 10.584 14.9-11.699 26.535-11.948 34.537-12.152z" fill="#4d4d4c" fill-rule="evenodd" stroke="#4d4d4c" stroke-linecap="round" stroke-width="2" />
<path d="m419.44 144.62c4.8416-34.197-2.3566-64.549-25.046-76.083-8.8046-4.197-10.643-5.6628-19.159-5.9743 10.489 1.2105 16.964 3.6747 23.443 9.004 10.986 7.0384 15.002 16.966 17.793 22.536 2.7743 10.962 3.5964 18.551 3.9162 27.865 2.4101 70.197-45.49 96.157-62.254 105.01 47.884-24.911 57.802-60.358 61.307-82.353z" fill="#4d4d4c" fill-rule="evenodd" stroke="#4d4d4c" stroke-linecap="round" stroke-width="3.36" />
</g>
</g>
<metadata>Adapted from Arms_of_the_King_of_the_Romans_(c.1433-1486).svg by Tom Lemmens (Tom-L) and Heralder, https://commons.wikimedia.org/wiki/File:Arms_of_the_King_of_the_Romans_(c.1433-1486).svg . CC BY-SA 3.0, https://creativecommons.org/licenses/by-sa/3.0/ . Fabelgeist contributors removed the shield, identified tongue paths and expanded the double eagle's mirrored wing with unique IDs. The double eagle retains the modern source's halos. Historical provenance and modification details: ../EAGLES.md.</metadata></svg>